<svg width="48" height="48" viewBox="0 0 48 48" fill="none" xmlns="http://www.w3.org/2000/svg">
<path d="M23.9812 3.57495C12.3891 3.57027 3 12.9546 3 24.5375C3 33.6968 8.87344 41.4828 17.0531 44.3421C18.1547 44.6187 17.9859 43.8359 17.9859 43.3015V39.6687C11.625 40.414 11.3672 36.2046 10.9406 35.5015C10.0781 34.0296 8.03906 33.6546 8.64844 32.9515C10.0969 32.2062 11.5734 33.139 13.2844 35.6656C14.5219 37.4984 16.9359 37.189 18.1594 36.8843C18.4266 35.7828 18.9984 34.7984 19.7859 34.0343C13.1953 32.8531 10.4484 28.8312 10.4484 24.05C10.4484 21.7296 11.2125 19.5968 12.7125 17.8765C11.7562 15.0406 12.8016 12.6125 12.9422 12.2515C15.6656 12.0078 18.4969 14.2015 18.7172 14.375C20.2641 13.9578 22.0312 13.7375 24.0094 13.7375C25.9969 13.7375 27.7687 13.9671 29.3297 14.389C29.8594 13.9859 32.4844 12.1015 35.0156 12.3312C35.1516 12.6921 36.1734 15.064 35.2734 17.8625C36.7922 19.5875 37.5656 21.739 37.5656 24.064C37.5656 28.8546 34.8 32.8812 28.1906 34.0437C28.7567 34.6004 29.2062 35.2644 29.5129 35.9968C29.8195 36.7292 29.9771 37.5153 29.9766 38.3093V43.5828C30.0141 44.0046 29.9766 44.4218 30.6797 44.4218C38.9812 41.6234 44.9578 33.7812 44.9578 24.5421C44.9578 12.9546 35.5641 3.57495 23.9812 3.57495Z" fill="#171F3F"/>
</svg>
