<svg width="32" height="32" xmlns="http://www.w3.org/2000/svg">
 <defs>
  <style type="text/css">
   <![CDATA[
    .fil0 {fill:none}
    .fil1 {fill:white}
   ]]>
  </style>
 </defs>
 <g>
  <title>background</title>
  <rect fill="none" id="canvas_background" height="402" width="582" y="-1" x="-1"/>
 </g>
 <g>
  <title>Layer 1</title>
  <g id="Warstwa_x0020_1">
   <metadata id="CorelCorpID_0Corel-Layer"/>
   <rect id="svg_1" height="32" width="32" class="fil0"/>
  </g>
  <g stroke="null" id="Warstwa_x0020_1_0">
   <metadata stroke="null" transform="translate(-0.0625,0.25) translate(0.5,0.5625) translate(0.375,-0.125) translate(0.25,1.75) translate(28.25,28.75) scale(1.0729166269302368,1.0651041269302368) translate(-28.25,-28.75) translate(26.67961311340332,26.875307083129883) scale(1.016990303993225,1.0195598602294922) translate(-26.67961311340332,-26.875307083129883) " id="CorelCorpID_1Corel-Layer"/>
   <path stroke="null" d="m23.606771,3.375002l-15.276041,0c-3.273437,0 -5.455729,2.171875 -5.455729,5.429687l0,15.203124c0,3.257812 2.182292,5.429687 5.455729,5.429687l15.276041,0c3.273437,0 5.455729,-2.171875 5.455729,-5.429687l0,-15.203124c0,-3.257812 -2.182292,-5.429687 -5.455729,-5.429687zm-12.002604,20.632811l-3.273437,0l0,-11.945312l3.273437,0l0,11.945312zm-2.182292,-14.117186c-1.091146,0 -2.182292,-1.085937 -2.182292,-2.171875c0,-1.085937 1.091146,-2.171875 2.182292,-2.171875c1.091146,0 2.182292,1.085937 2.182292,2.171875c0,1.085937 -1.091146,2.171875 -2.182292,2.171875zm15.276041,14.117186l-3.273437,0l0,-6.515624c0,-4.34375 -4.364583,-3.257812 -4.364583,0l0,6.515624l-3.273437,0l0,-11.945312l3.273437,0l0,2.171875c1.091146,-3.257812 7.638021,-3.257812 7.638021,3.257812l0,7.601562l0,0l0,0l0,-1.085937z" class="fil1" id="in.svg"/>
  </g>
 </g>
</svg>